<svg xmlns="http://www.w3.org/2000/svg"  viewBox="0 0 16 16" width="64px" height="64px"><path d="M 10.5 1.5 C 8.296875 1.5 6.5 3.296875 6.5 5.5 C 6.5 5.648438 6.523438 5.785156 6.539063 5.921875 C 5.050781 7.414063 2.519531 9.945313 2.234375 10.234375 C 1.261719 11.203125 1.261719 12.796875 2.234375 13.765625 C 3.203125 14.738281 4.796875 14.738281 5.765625 13.765625 L 10.074219 9.460938 C 10.214844 9.476563 10.351563 9.5 10.5 9.5 C 12.703125 9.5 14.5 7.703125 14.5 5.5 C 14.5 4.835938 14.335938 4.207031 14.046875 3.65625 L 13.734375 3.054688 L 11.09375 5.691406 L 10.308594 4.90625 L 12.949219 2.265625 L 12.34375 1.953125 C 11.792969 1.664063 11.164063 1.5 10.5 1.5 Z M 10.5 2.5 C 10.730469 2.5 10.925781 2.605469 11.140625 2.65625 L 8.894531 4.90625 L 11.09375 7.105469 L 11.449219 6.75 L 13.34375 4.859375 C 13.394531 5.074219 13.5 5.269531 13.5 5.5 C 13.5 7.164063 12.164063 8.5 10.5 8.5 C 10.324219 8.5 10.148438 8.480469 9.96875 8.453125 L 9.714844 8.40625 L 5.0625 13.0625 C 4.46875 13.652344 3.53125 13.652344 2.9375 13.0625 C 2.347656 12.46875 2.347656 11.53125 2.9375 10.9375 C 3.238281 10.640625 5.953125 7.925781 7.410156 6.46875 L 7.59375 6.28125 L 7.546875 6.027344 C 7.519531 5.851563 7.5 5.675781 7.5 5.5 C 7.5 3.835938 8.835938 2.5 10.5 2.5 Z"/></svg>